<svg width="24" height="24" viewBox="0 0 24 24" xmlns="http://www.w3.org/2000/svg">
  <path
    fill="currentColor"
    d="M7.25 4a2.25 2.25 0 1 1 0 4.5A2.25 2.25 0 0 1 7.25 4Zm9.5 1a2.25 2.25 0 1 1 0 4.5A2.25 2.25 0 0 1 16.75 5Zm-9.5 7a2.25 2.25 0 1 1 0 4.5A2.25 2.25 0 0 1 7.25 12Zm2 2.75h3.38l1.8-1.8a1.5 1.5 0 0 1 2.12 0l1.45 1.45a1.5 1.5 0 0 1 0 2.12l-2.43 2.43a1.5 1.5 0 0 1-2.12 0l-1.52-1.52 1.41-1.41 1.17 1.17 2.08-2.08-1.1-1.1-2.24 2.24H8.75a1.5 1.5 0 0 1-1.5-1.5V9h2v5.75Zm0-7.25h5.26a1.5 1.5 0 0 1 1.06.44l1.43 1.43-1.41 1.41-1-1H8.75a1.5 1.5 0 0 1-1.5-1.5V7h2v1.5Z"
  />
</svg>
